<?xml version="1.0" standalone="no"?><!DOCTYPE svg PUBLIC "-//W3C//DTD SVG 20010904//EN" "http://www.w3.org/TR/2001/REC-SVG-20010904/DTD/svg10.dtd"><svg xmlns="http://www.w3.org/2000/svg" version="1.0" width="411.000000pt" height="289.000000pt" viewBox="0 0 411.000000 289.000000" preserveAspectRatio="xMidYMid meet">

<g transform="translate(0.000000,289.000000) scale(0.100000,-0.100000)" fill="#ffffff" stroke="none">
<path d="M1419 2806 c-56 -20 -96 -53 -126 -104 -27 -45 -28 -54 -28 -173 0 -122 1 -127 30 -175 19 -30 49 -60 79 -79 l49 -30 254 -3 253 -3 0 -81 0 -80 -496 4 c-481 3 -496 2 -510 -16 -10 -15 -14 -52 -14 -142 l0 -123 -268 -3 -269 -3 -49 -30 c-30 -19 -60 -49 -79 -79 -29 -48 -30 -53 -30 -176 0 -123 1 -128 30 -176 19 -30 49 -60 79 -79 l49 -30 274 -3 273 -3 0 -116 0 -116 -194 6 c-209 7 -250 1 -260 -36 -3 -12 -6 -72 -6 -133 l0 -111 -74 -5 c-89 -6 -151 -38 -196 -100 -42 -58 -53 -107 -48 -233 3 -99 6 -115 31 -157 31 -53 79 -94 134 -114 52 -18 314 -18 366 0 55 20 103 61 134 114 25 42 28 58 31 157 2 61 -1 129 -7 151 -26 96 -115 171 -216 181 l-55 6 0 95 0 95 68 -6 c37 -4 230 -7 430 -7 l362 0 0 -95 0 -95 -40 0 c-22 0 -40 -4 -40 -9 0 -5 -12 -11 -27 -14 -44 -9 -109 -62 -140 -114 -27 -46 -28 -53 -28 -184 0 -133 0 -136 30 -185 17 -28 52 -63 79 -82 l48 -32 188 0 188 0 48 33 c27 18 62 53 79 81 30 49 30 52 30 185 0 131 -1 138 -28 184 -31 52 -96 105 -139 114 -16 3 -28 9 -28 14 0 5 -27 9 -59 9 l-59 0 -4 131 c-3 116 -5 132 -22 145 -16 11 -67 14 -248 14 l-228 0 0 114 0 115 273 3 274 3 49 30 c30 19 60 49 79 79 29 48 30 53 30 176 0 123 -1 128 -30 176 -19 30 -49 60 -79 79 l-49 30 -279 3 -278 3 0 95 0 94 158 -5 c86 -3 534 -8 995 -11 l837 -6 0 -94 0 -93 -248 -3 -249 -3 -49 -30 c-30 -19 -60 -49 -79 -79 -29 -48 -30 -53 -30 -176 0 -123 1 -128 30 -176 19 -30 49 -60 79 -79 l49 -30 279 -3 279 -3 -3 -107 -3 -107 -200 0 c-110 0 -210 -4 -223 -8 -34 -13 -42 -45 -42 -168 l0 -109 -50 0 c-27 0 -50 -4 -50 -9 0 -5 -12 -11 -27 -14 -44 -9 -109 -62 -140 -114 -27 -46 -28 -53 -28 -184 0 -133 0 -136 30 -185 17 -28 52 -63 79 -81 l48 -33 188 0 188 0 48 33 c27 18 62 53 79 81 30 49 30 52 30 185 0 131 -1 138 -28 184 -31 52 -96 105 -139 114 -16 3 -28 9 -28 14 0 5 -23 9 -50 9 l-51 0 3 93 3 92 43 0 c23 -1 218 -2 432 -3 l390 -2 0 -85 0 -85 -40 0 c-22 0 -40 -4 -40 -9 0 -5 -12 -11 -27 -14 -44 -9 -109 -62 -140 -114 -27 -46 -28 -53 -28 -184 0 -133 0 -136 30 -185 17 -28 52 -63 79 -81 l48 -33 188 0 188 0 48 33 c27 18 62 53 79 81 30 49 30 52 30 185 0 131 -1 138 -28 184 -31 52 -96 105 -139 114 -16 3 -28 9 -28 14 0 5 -27 9 -60 9 l-60 0 0 119 c0 95 -3 123 -16 135 -13 14 -50 16 -250 16 l-234 0 0 109 0 110 268 3 269 3 49 30 c30 19 60 49 79 79 29 48 30 53 30 176 0 123 -1 128 -30 176 -19 30 -49 60 -79 79 l-49 30 -299 3 -298 3 0 134 c0 123 -2 135 -19 145 -13 6 -166 10 -429 10 -225 0 -457 3 -515 7 l-107 6 0 78 0 78 293 3 294 3 49 30 c30 19 60 49 79 79 29 48 30 53 30 176 0 123 -1 128 -30 176 -19 30 -49 60 -79 79 l-49 30 -581 2 c-458 2 -589 0 -617 -11z m1190 -104 c53 -29 71 -72 71 -172 0 -100 -18 -143 -71 -172 -31 -17 -70 -18 -589 -18 -519 0 -558 1 -589 18 -53 29 -71 72 -71 172 0 100 18 143 71 172 31 17 70 18 589 18 519 0 558 -1 589 -18z m-1050 -1020 c53 -29 71 -72 71 -172 0 -100 -18 -143 -71 -172 -31 -17 -70 -18 -589 -18 -519 0 -558 1 -589 18 -53 29 -71 72 -71 172 0 100 18 143 71 172 31 17 70 18 589 18 519 0 558 -1 589 -18z m2130 -20 c53 -29 71 -72 71 -172 0 -100 -18 -143 -71 -172 -31 -17 -70 -18 -589 -18 -519 0 -558 1 -589 18 -53 29 -71 72 -71 172 0 100 18 143 71 172 31 17 70 18 589 18 519 0 558 -1 589 -18z m-3033 -1068 c19 -9 44 -31 57 -48 20 -28 22 -43 22 -146 0 -103 -2 -118 -22 -146 -38 -54 -75 -64 -223 -64 -148 0 -185 10 -223 64 -20 28 -22 43 -22 146 0 103 2 118 22 146 39 54 72 64 221 64 103 0 142 -4 168 -16z m3140 -10 c19 -9 44 -31 57 -48 20 -28 22 -43 22 -146 0 -103 -2 -118 -22 -146 -38 -54 -75 -64 -223 -64 -148 0 -185 10 -223 64 -20 28 -22 43 -22 146 0 103 2 118 22 146 39 54 72 64 221 64 103 0 142 -4 168 -16z m-2140 -10 c19 -9 44 -31 57 -48 20 -28 22 -43 22 -146 0 -103 -2 -118 -22 -146 -38 -54 -75 -64 -223 -64 -148 0 -185 10 -223 64 -20 28 -22 43 -22 146 0 103 2 118 22 146 39 54 72 64 221 64 103 0 142 -4 168 -16z m1150 0 c19 -9 44 -31 57 -48 20 -28 22 -43 22 -146 0 -103 -2 -118 -22 -146 -38 -54 -75 -64 -223 -64 -148 0 -185 10 -223 64 -20 28 -22 43 -22 146 0 103 2 118 22 146 39 54 72 64 221 64 103 0 142 -4 168 -16z"/>
<path d="M2912 2582 c-22 -21 -23 -25 -9 -45 13 -19 26 -23 113 -28 172 -11 963 -10 985 1 28 16 26 68 -4 79 -12 5 -256 10 -542 13 l-520 4 -23 -24z"/>
<path d="M62 2572 c-22 -21 -23 -25 -9 -45 13 -19 26 -23 113 -28 172 -11 963 -10 985 1 28 16 26 68 -4 79 -12 5 -256 10 -542 13 l-520 4 -23 -24z"/>
</g>
</svg>