<?xml version="1.0" standalone="no"?>
<!DOCTYPE svg PUBLIC "-//W3C//DTD SVG 20010904//EN"
 "http://www.w3.org/TR/2001/REC-SVG-20010904/DTD/svg10.dtd">
<svg version="1.0" xmlns="http://www.w3.org/2000/svg"
 width="980.000000pt" height="560.000000pt" viewBox="0 0 980.000000 560.000000"
 preserveAspectRatio="xMidYMid meet">

<g transform="translate(0.000000,560.000000) scale(0.100000,-0.100000)"
fill="#000000" stroke="none">
<path d="M4585 5589 c-1107 -82 -2130 -576 -3340 -1614 -297 -255 -574 -513
-1035 -964 l-215 -211 390 -386 c687 -681 1018 -983 1420 -1295 798 -620 1593
-968 2458 -1079 1403 -179 2654 236 4035 1339 364 290 608 512 1200 1093 l303
297 -182 203 c-232 257 -826 852 -1029 1029 -894 781 -1710 1241 -2600 1464
-443 112 -959 157 -1405 124z m600 -814 c725 -109 1338 -631 1570 -1338 209
-638 101 -1304 -298 -1847 -84 -114 -281 -313 -392 -395 -592 -442 -1362 -514
-2017 -190 -886 439 -1317 1474 -1007 2420 102 315 259 569 493 800 186 184
355 302 576 400 343 153 711 204 1075 150z"/>
<path d="M4780 3960 c-167 -18 -354 -85 -501 -182 -273 -180 -461 -479 -510
-808 -18 -125 -7 -342 24 -461 125 -480 517 -820 1004 -869 556 -55 1073 321
1214 884 21 81 39 376 26 410 -5 13 -12 12 -44 -10 -211 -144 -469 -161 -703
-47 -79 38 -109 60 -181 132 -72 72 -94 102 -132 181 -117 239 -97 497 53 716
18 25 30 47 28 49 -9 9 -204 12 -278 5z"/>
</g>
</svg>
