<?xml version="1.0" standalone="no"?><!DOCTYPE svg PUBLIC "-//W3C//DTD SVG 20010904//EN" "http://www.w3.org/TR/2001/REC-SVG-20010904/DTD/svg10.dtd"><svg xmlns="http://www.w3.org/2000/svg" version="1.0" width="1204.000000pt" height="1146.000000pt" viewBox="0 0 1204.000000 1146.000000" preserveAspectRatio="xMidYMid meet">

<g transform="translate(0.000000,1146.000000) scale(0.100000,-0.100000)" fill="#ffffff" stroke="none">
<path d="M5935 11443 c-33 -17 -86 -58 -190 -148 -39 -33 -95 -80 -125 -105 -30 -25 -88 -74 -130 -110 -42 -36 -100 -85 -130 -110 -30 -25 -104 -88 -165 -140 -62 -52 -162 -138 -225 -190 -62 -52 -126 -107 -144 -122 -168 -143 -1144 -968 -1255 -1062 -79 -66 -149 -126 -155 -131 -6 -6 -139 -118 -295 -250 -156 -132 -319 -269 -361 -305 -42 -36 -100 -85 -130 -110 -30 -25 -90 -76 -134 -114 -133 -113 -325 -276 -551 -466 -82 -69 -180 -152 -219 -185 -39 -34 -116 -99 -171 -145 -127 -107 -168 -141 -815 -689 -733 -621 -682 -575 -707 -631 -21 -47 -21 -156 1 -198 50 -97 116 -137 226 -137 82 1 111 14 201 92 25 21 69 58 99 83 76 64 196 165 255 215 28 24 77 66 110 94 33 28 63 51 67 51 5 0 9 -1448 10 -3217 l3 -3218 28 -57 c28 -57 48 -77 120 -117 l38 -21 2404 0 2405 0 0 235 0 235 -1730 0 c-1147 0 -1730 3 -1730 10 0 6 -95 10 -265 10 -175 0 -265 3 -265 10 0 6 8 13 18 16 9 3 26 10 37 14 11 5 43 18 70 30 80 34 119 51 140 60 11 5 43 18 70 30 28 12 59 25 70 30 11 5 135 57 275 115 140 59 269 113 285 120 17 7 41 18 55 23 80 34 127 54 145 62 11 5 43 18 70 30 28 12 66 28 85 36 19 9 46 20 60 26 14 5 39 16 55 23 17 7 161 68 320 135 308 129 304 127 379 161 28 12 75 47 107 78 225 223 966 956 1209 1195 162 160 646 638 1075 1061 428 424 948 937 1155 1140 206 204 530 524 720 712 190 188 476 471 637 630 160 158 297 299 303 312 53 106 70 406 31 553 -51 198 -135 365 -256 513 -75 91 -225 236 -295 285 -19 14 -37 28 -40 31 -12 13 -181 110 -240 137 -74 34 -194 74 -292 96 -98 23 -387 22 -475 -1 -74 -20 -33 17 -688 -631 -193 -191 -499 -493 -680 -672 -182 -179 -692 -683 -1135 -1120 -442 -437 -946 -934 -1119 -1105 -326 -321 -1027 -1015 -1401 -1386 l-215 -214 -79 -190 c-44 -104 -93 -219 -109 -255 -16 -36 -35 -81 -43 -100 -17 -40 -23 -53 -57 -130 -14 -30 -43 -100 -67 -154 -23 -54 -45 -106 -49 -115 -5 -9 -15 -33 -24 -54 -32 -74 -78 -178 -87 -198 -5 -8 -34 -76 -65 -150 -50 -116 -73 -170 -115 -264 -41 -93 -67 -152 -130 -300 -63 -148 -92 -215 -130 -300 -5 -11 -18 -42 -30 -70 -41 -96 -51 -115 -60 -115 -6 0 -10 1183 -10 3213 l0 3212 432 365 c237 201 436 370 442 375 6 6 67 58 136 115 69 58 138 117 155 131 16 15 183 156 370 314 187 158 351 297 365 309 21 18 249 210 1160 982 52 44 275 232 495 418 220 186 414 350 430 365 27 24 90 77 443 374 57 48 108 87 113 85 4 -2 145 -118 311 -259 264 -223 1205 -1020 1463 -1239 149 -126 501 -424 654 -553 79 -67 179 -151 221 -187 42 -36 100 -85 130 -110 30 -25 90 -76 134 -114 161 -136 282 -238 386 -326 30 -25 86 -72 125 -105 38 -34 113 -97 165 -141 178 -150 445 -376 470 -398 14 -11 125 -106 248 -209 l222 -188 0 -3530 0 -3529 149 0 c135 0 153 2 192 22 54 29 104 78 127 126 16 35 17 214 19 3247 2 1766 5 3216 8 3224 4 9 18 3 53 -25 26 -21 49 -41 52 -44 3 -3 77 -66 165 -140 88 -74 199 -167 246 -208 115 -98 129 -105 219 -106 87 -1 137 20 188 79 88 100 83 228 -13 330 -16 17 -86 78 -154 136 -135 113 -255 214 -487 410 -82 70 -210 178 -284 241 -74 62 -270 228 -435 368 -432 365 -462 391 -655 554 -96 81 -186 158 -200 170 -14 11 -171 145 -350 296 -179 151 -336 285 -350 296 -41 36 -1789 1515 -1995 1688 -104 88 -192 163 -195 166 -3 3 -61 52 -130 110 -69 57 -127 107 -130 110 -3 3 -77 66 -165 140 -88 74 -185 155 -215 181 -76 65 -131 89 -199 88 -31 -1 -69 -8 -86 -16z m2325 -3647 c199 -62 327 -142 491 -305 73 -74 179 -200 179 -214 0 -2 12 -26 27 -53 32 -56 46 -91 74 -184 24 -82 27 -275 5 -319 -8 -15 -338 -346 -733 -736 -395 -390 -837 -827 -983 -971 -146 -144 -341 -337 -435 -429 -93 -92 -502 -497 -909 -899 -406 -402 -742 -733 -746 -736 -4 -3 -285 -279 -624 -615 -451 -446 -629 -615 -659 -628 -23 -10 -57 -25 -75 -32 -18 -8 -47 -21 -65 -29 -17 -7 -115 -49 -217 -91 -102 -42 -194 -81 -205 -85 -11 -5 -42 -18 -70 -30 -27 -12 -59 -25 -70 -30 -18 -8 -65 -28 -145 -62 -14 -5 -38 -16 -55 -23 -25 -11 -499 -210 -560 -235 -11 -5 -36 -15 -55 -24 -19 -8 -57 -24 -85 -36 -27 -12 -59 -25 -70 -30 -18 -8 -65 -28 -145 -62 -14 -5 -39 -17 -57 -25 -18 -9 -39 -13 -48 -9 -14 5 -15 9 -2 33 8 16 21 44 29 63 21 48 49 112 58 131 5 8 34 76 65 150 50 116 73 170 115 264 41 93 67 152 130 299 40 93 76 177 80 185 8 16 28 61 57 128 9 21 19 45 24 54 4 9 26 61 49 115 49 115 76 177 95 219 34 75 74 166 100 228 27 65 46 85 739 770 391 386 864 853 1051 1038 187 185 372 367 411 405 39 38 430 425 869 859 447 443 805 790 814 790 10 0 215 -193 455 -430 241 -236 444 -430 451 -430 18 0 235 212 235 230 0 8 -143 155 -317 327 -175 172 -373 367 -440 433 -68 67 -123 126 -123 132 0 18 250 258 269 258 10 0 207 -185 450 -425 238 -234 441 -426 451 -428 13 -2 55 32 130 105 60 60 110 114 110 121 0 8 -414 424 -851 855 -16 16 -29 34 -29 40 0 22 390 395 418 401 67 12 268 -5 342 -28z"/>
</g>
</svg>