<?xml version="1.0" standalone="no"?><!DOCTYPE svg PUBLIC "-//W3C//DTD SVG 20010904//EN" "http://www.w3.org/TR/2001/REC-SVG-20010904/DTD/svg10.dtd"><svg xmlns="http://www.w3.org/2000/svg" version="1.0" width="576.000000pt" height="433.000000pt" viewBox="0 0 576.000000 433.000000" preserveAspectRatio="xMidYMid meet">

<g transform="translate(0.000000,433.000000) scale(0.100000,-0.100000)" fill="#ffffff" stroke="none">
<path d="M560 4310 c-102 -7 -164 -28 -257 -86 -152 -96 -248 -239 -287 -426 -14 -69 -16 -249 -16 -1630 0 -1484 1 -1557 19 -1645 49 -234 206 -409 441 -489 53 -18 135 -19 2415 -19 2263 0 2362 1 2420 18 174 54 311 169 388 327 83 169 78 50 75 1840 -3 1494 -5 1588 -22 1645 -54 181 -171 325 -331 407 -132 68 78 62 -2455 64 -1262 1 -2338 -2 -2390 -6z m4651 -234 c135 -29 232 -106 279 -223 l24 -58 7 -835 c10 -1263 10 -2192 0 -2315 -18 -209 -90 -317 -256 -381 -49 -18 -112 -19 -2350 -22 -1509 -1 -2318 1 -2353 8 -117 21 -226 95 -269 182 -55 110 -53 31 -53 1733 0 1386 2 1578 15 1630 41 157 133 246 289 280 93 20 4571 21 4667 1z"/>
<path d="M965 3706 c-210 -52 -357 -242 -357 -461 -1 -261 212 -475 472 -475 285 0 510 260 470 543 -39 274 -316 460 -585 393z"/>
<path d="M3259 2887 c-377 -320 -725 -615 -773 -656 l-86 -73 -294 236 c-162 130 -299 236 -305 236 -13 0 -1155 -910 -1185 -943 -17 -21 -18 -45 -12 -542 4 -286 10 -523 15 -528 4 -4 1024 -6 2267 -5 l2259 3 5 855 c3 470 3 874 1 898 -3 40 -10 48 -140 165 -75 67 -340 305 -589 530 -248 224 -457 407 -464 407 -7 -1 -322 -263 -699 -583z"/>
</g>
</svg>