<?xml version="1.0" encoding="utf-8"?><!-- Svg Vector Icons : http://www.onlinewebfonts.com/icon --><!DOCTYPE svg PUBLIC "-//W3C//DTD SVG 1.1//EN" "http://www.w3.org/Graphics/SVG/1.1/DTD/svg11.dtd"><svg xmlns="http://www.w3.org/2000/svg" xmlns:xlink="http://www.w3.org/1999/xlink" version="1.1" x="0px" y="0px" viewBox="0 0 256 256" enable-background="new 0 0 256 256" xml:space="preserve">
<metadata> Svg Vector Icons : http://www.onlinewebfonts.com/icon </metadata>
<g><g><g><path fill="#ffffff" d="M128,10C62.9,10,10,62.9,10,128c0,65,52.9,118,118,118c65,0,118-53,118-118C246,62.9,193,10,128,10z M128,221.4c-51.5,0-93.4-41.9-93.4-93.4c0-51.5,41.9-93.4,93.4-93.4c51.5,0,93.4,41.9,93.4,93.4C221.4,179.5,179.5,221.4,128,221.4z M199.9,128c0,10.2-8.3,18.5-18.5,18.5h-35v35c0,10.2-8.3,18.5-18.5,18.5c-10.2,0-18.5-8.3-18.5-18.5v-35h-35c-10.2,0-18.5-8.3-18.5-18.5c0-10.2,8.3-18.5,18.5-18.5h35v-35c0-10.2,8.3-18.5,18.5-18.5c10.2,0,18.5,8.3,18.5,18.5v35h35C191.6,109.5,199.9,117.8,199.9,128z"/></g><g/><g/><g/><g/><g/><g/><g/><g/><g/><g/><g/><g/><g/><g/><g/></g></g>
</svg>